<?xml version="1.0" encoding="UTF-8" standalone="no" ?>
<!DOCTYPE svg PUBLIC "-//W3C//DTD SVG 1.1//EN" "http://www.w3.org/Graphics/SVG/1.1/DTD/svg11.dtd">
<svg xmlns="http://www.w3.org/2000/svg" xmlns:xlink="http://www.w3.org/1999/xlink" version="1.1" width="1280" height="1024" viewBox="0 0 1280 1024" xml:space="preserve">
<desc>Created with Fabric.js 5.3.0</desc>
<defs>
</defs>
<g transform="matrix(1 0 0 1 640 512)" id="background-logo"  >
<rect style="stroke: none; stroke-width: 0; stroke-dasharray: none; stroke-linecap: butt; stroke-dashoffset: 0; stroke-linejoin: miter; stroke-miterlimit: 4; fill: rgb(255,255,255); fill-opacity: 0; fill-rule: nonzero; opacity: 1;"  paint-order="stroke"  x="-640" y="-512" rx="0" ry="0" width="1280" height="1024" />
</g>
<g transform="matrix(9.264021950674605 0 0 9.264021950674605 640.5288112522686 512.3021778584392)" id="shape-f2fde85f-f1ae-4237-abfc-043d7912be36"  >
<g style=""  paint-order="stroke"   >
		<g transform="matrix(1 0 0 1 0 0)" id="_x31__00000121985655837677124950000010783220147992110245_"  >
<linearGradient id="SVGID_3_296813" gradientUnits="userSpaceOnUse" gradientTransform="matrix(1 0 0 1 0.00001607652216328859 -0.00005192053191649393)"  x1="0" y1="0" x2="0" y2="100">
<stop offset="0%" style="stop-color:rgb(23,234,217);stop-opacity: 1"/>
<stop offset="100%" style="stop-color:rgb(96,120,234);stop-opacity: 1"/>
</linearGradient>
<path style="stroke: none; stroke-width: 1; stroke-dasharray: none; stroke-linecap: butt; stroke-dashoffset: 0; stroke-linejoin: miter; stroke-miterlimit: 4; fill: url(#SVGID_3_296813); fill-rule: nonzero; opacity: 1;"  paint-order="stroke"  transform=" translate(-14.11636828436646, -49.99998903973405)" d="M 25.63296 67.9649 C 24.00823 66.01775 21.706310000000002 64.67305 19.19347 64.28778 C 19.02811 64.26244 18.86206 64.2413 18.695710000000002 64.22376 L 18.695710000000002 19.5794 C 18.695710000000002 18.807199999999998 18.485970000000002 18.0495 18.08893 17.38719 L 18.08893 64.18019 C 17.84083 64.16915999999999 17.59254 64.1668 17.34468 64.17528999999999 L 17.34468 19.5794 C 17.34468 18.807199999999998 17.13494 18.0495 16.7379 17.38719 L 16.7379 64.21632 C 16.48837 64.24221999999999 16.24039 64.28121 15.993829999999999 64.32974 L 15.993829999999999 19.5794 C 15.993829999999999 18.807199999999998 15.784089999999999 18.0495 15.387049999999999 17.38719 L 15.387049999999999 64.47186 C 15.377189999999999 64.47459 15.367219999999998 64.47651 15.35742 64.47930000000001 C 15.11533 64.54841 14.877569999999999 64.63196 14.6428 64.72343000000001 L 14.6428 19.5794 C 14.6428 18.807199999999998 14.43306 18.0495 14.03596 17.38719 L 14.03596 64.9853 C 13.761389999999999 65.11842999999999 13.493889999999999 65.26632 13.23531 65.42845 C 13.23351 64.36247 13.23066 63.296479999999995 13.22973 62.2305 C 13.2257 57.6173 13.22948 53.00404 13.23779 48.39084 C 13.24566 44.046079999999996 13.25769 39.70131 13.272870000000001 35.35655 C 13.284960000000002 31.8795 13.299090000000001 28.402449999999998 13.31526 24.925399999999996 C 13.32456 22.915219999999998 13.33447 20.905099999999997 13.34551 18.894979999999997 C 13.347180000000002 18.592209999999998 13.363480000000001 18.284979999999997 13.34904 17.982459999999996 C 13.299330000000001 16.941699999999997 12.52248 16.313659999999995 11.741480000000001 15.752679999999996 C 11.564900000000002 15.625869999999995 11.387020000000001 15.500669999999996 11.21583 15.366549999999997 C 11.15868 15.321739999999997 10.99785 15.137099999999997 10.877360000000001 15.025039999999997 C 10.936430000000001 14.866249999999997 10.96934 14.612629999999998 10.999770000000002 14.507079999999997 C 11.119200000000001 14.092619999999997 11.239130000000001 13.678349999999996 11.359620000000001 13.264269999999996 C 12.465950000000001 9.463069999999997 13.593110000000001 5.660249999999996 14.882970000000002 1.9163099999999957 C 14.932060000000002 1.7736999999999958 14.981210000000003 1.6310799999999959 15.032150000000001 1.4890899999999958 C 15.124190000000002 1.2326199999999958 15.041940000000002 0.8912999999999958 14.907940000000002 0.6628999999999958 C 14.832080000000001 0.5336099999999958 14.600710000000001 0.28091999999999584 14.505820000000002 0.5452599999999959 C 14.440370000000001 0.7275999999999958 14.376900000000001 0.9107499999999958 14.312880000000002 1.0936499999999958 L 13.394340000000001 0.8037099999999958 L 13.565780000000002 0.26076999999999584 C 13.574400000000002 0.23349999999999585 13.553200000000002 0.19946999999999585 13.518680000000002 0.18508999999999584 L 13.128950000000001 0.023079999999995854 C 12.661380000000001 -0.10627000000000414 12.266440000000001 0.3265299999999959 12.098910000000002 0.8310499999999958 C 11.946380000000001 1.3402699999999959 12.021250000000002 1.921389999999996 12.478290000000001 2.083969999999996 L 12.890450000000001 2.175079999999996 C 12.926890000000002 2.183139999999996 12.963770000000002 2.1674599999999957 12.972450000000002 2.140189999999996 L 13.143820000000002 1.597249999999996 L 14.041470000000002 1.8806799999999961 C 13.849830000000003 2.445499999999996 13.663210000000003 3.012299999999996 13.480930000000003 3.5805899999999964 L 12.604970000000003 3.3040399999999965 L 12.776410000000004 2.7610999999999963 C 12.784960000000003 2.733829999999996 12.763830000000004 2.699799999999996 12.729310000000003 2.685419999999996 L 12.339520000000004 2.523409999999996 C 11.872010000000003 2.394119999999996 11.477080000000004 2.8268599999999964 11.309540000000004 3.3313799999999962 C 11.157010000000003 3.8405999999999962 11.231880000000004 4.421719999999996 11.688920000000003 4.584299999999996 L 12.101080000000003 4.675409999999996 C 12.137520000000004 4.683469999999996 12.174460000000003 4.667789999999996 12.183020000000003 4.640519999999996 L 12.354460000000003 4.097579999999996 L 13.228740000000004 4.373639999999996 C 13.049740000000003 4.942859999999996 12.873410000000003 5.512889999999997 12.698940000000004 6.083279999999997 L 11.815610000000003 5.804369999999997 L 11.986980000000003 5.261489999999997 C 11.995590000000002 5.234219999999997 11.974400000000003 5.200129999999997 11.939940000000002 5.1858099999999965 L 11.550150000000002 5.023729999999997 C 11.082640000000001 4.894439999999997 10.687710000000003 5.327239999999997 10.520170000000002 5.831699999999997 C 10.367640000000002 6.340989999999997 10.442510000000002 6.922039999999997 10.899550000000001 7.084679999999997 L 11.311650000000002 7.175789999999997 C 11.348160000000002 7.183849999999997 11.385030000000002 7.168099999999996 11.393650000000003 7.140829999999997 L 11.565090000000003 6.597949999999996 L 12.456170000000004 6.879279999999996 C 12.361960000000003 7.189049999999996 12.268000000000004 7.498769999999996 12.173910000000003 7.808349999999996 C 12.094580000000002 8.069529999999997 12.017040000000003 8.331269999999996 11.938260000000003 8.592639999999996 L 11.026230000000004 8.304739999999995 L 11.197600000000003 7.761799999999996 C 11.206210000000002 7.734529999999996 11.185020000000003 7.7004999999999955 11.150560000000002 7.686119999999995 L 10.760770000000003 7.524109999999995 C 10.293260000000002 7.394759999999995 9.898330000000003 7.827559999999995 9.730730000000003 8.332079999999994 C 9.578260000000004 8.841299999999993 9.653130000000003 9.422419999999994 10.110110000000002 9.584999999999994 L 10.522270000000002 9.676109999999994 C 10.558780000000002 9.684169999999995 10.595650000000003 9.668489999999995 10.604270000000003 9.641219999999993 L 10.775710000000004 9.098279999999994 L 11.698830000000005 9.389709999999994 C 11.527950000000004 9.961409999999994 11.358500000000005 10.533539999999993 11.190160000000004 11.106049999999994 L 10.236850000000004 10.805079999999995 L 10.408220000000004 10.262139999999995 C 10.416840000000004 10.234869999999995 10.395640000000004 10.200839999999996 10.361180000000003 10.186529999999996 L 9.971390000000003 10.024449999999996 C 9.503880000000002 9.895159999999997 9.108940000000002 10.327899999999996 8.941350000000003 10.832409999999996 C 8.788880000000004 11.341629999999995 8.863750000000003 11.922749999999995 9.320730000000003 12.085329999999995 L 9.732890000000003 12.176439999999996 C 9.769400000000003 12.184499999999996 9.806270000000003 12.168819999999997 9.814890000000004 12.141549999999995 L 9.986260000000003 11.598609999999995 L 10.955190000000004 11.904539999999995 C 10.931450000000003 11.985859999999995 10.907160000000003 12.067049999999995 10.883420000000003 12.148369999999996 C 10.744150000000003 12.626289999999996 10.563230000000003 13.118229999999997 10.418880000000003 13.612139999999997 L 9.447410000000003 13.305399999999997 L 9.618850000000004 12.762459999999997 C 9.627470000000004 12.735249999999997 9.606270000000004 12.701159999999998 9.571750000000003 12.686849999999998 L 9.18205 12.5247 C 8.71454 12.39541 8.31961 12.828209999999999 8.15201 13.332669999999998 C 7.9995400000000005 13.841959999999998 8.07435 14.423009999999998 8.53139 14.585589999999998 L 8.94355 14.676759999999998 C 8.98006 14.684819999999998 9.01693 14.669069999999998 9.02555 14.641799999999998 L 9.19692 14.098919999999998 L 10.228570000000001 14.424559999999998 C 10.22591 14.440859999999997 10.222120000000002 14.457219999999998 10.219650000000001 14.473519999999997 C 10.149920000000002 14.931239999999997 10.310820000000001 15.430169999999997 10.57684 15.801179999999997 C 11.10261 16.534339999999997 11.995610000000001 16.871879999999997 12.612250000000001 17.509269999999997 C 12.629980000000002 17.52762 12.712220000000002 17.632479999999997 12.753380000000002 17.679959999999998 C 12.754000000000001 17.69843 12.755120000000002 17.7169 12.754430000000001 17.734619999999996 C 12.70218 19.148309999999995 12.739120000000002 20.571239999999996 12.732120000000002 21.985669999999995 C 12.717180000000003 25.015539999999994 12.703860000000002 28.045409999999997 12.692020000000001 31.075279999999996 C 12.67603 35.161649999999995 12.662700000000001 39.24809 12.65272 43.33445999999999 C 12.64392 46.903549999999996 12.64026 50.472579999999994 12.63747 54.041669999999996 C 12.52572 54.05184 12.41156 54.05629999999999 12.293980000000001 54.05233 C 11.945350000000001 54.040549999999996 11.599190000000002 53.94387 11.286880000000002 53.79108 C 10.998490000000002 53.64996 10.728380000000001 53.4104 10.551120000000001 53.18442 C 10.52218 53.147540000000006 10.49515 53.109550000000006 10.46732 53.071870000000004 C 10.46236 53.065110000000004 10.459700000000002 53.06176000000001 10.45678 53.05792 C 10.45443 53.05389 10.45275 53.05086 10.44891 53.044470000000004 C 10.42412 53.003260000000004 10.3992 52.962230000000005 10.3759 52.92014 C 10.36741 52.90489 10.33691 52.845330000000004 10.32204 52.81701 C 10.31157 52.79339 10.29613 52.759060000000005 10.2921 52.749390000000005 C 10.2727 52.70272000000001 10.256649999999999 52.65462000000001 10.23719 52.60801000000001 C 10.23539 52.60367000000001 10.23483 52.60286000000001 10.23341 52.59964000000001 C 10.23143 52.591710000000006 10.22975 52.58489000000001 10.22628 52.572120000000005 C 10.21233 52.52123 10.19826 52.470470000000006 10.18525 52.419340000000005 C 10.18153 52.40453000000001 10.17837 52.38953000000001 10.17502 52.374590000000005 C 10.17496 52.374280000000006 10.17496 52.374280000000006 10.17496 52.37391 C 10.16684 52.319250000000004 10.15643 52.26495 10.14893 52.21016 C 10.13003 52.07139 10.12203 51.93274 10.12073 51.79242 C 10.11793 51.49343 10.15432 51.19624 10.21835 50.90426 C 10.420589999999999 49.98213 10.939359999999999 49.19697 11.49847 48.45557 C 11.70468 48.18224 11.8569 47.963390000000004 11.804279999999999 47.59976 C 11.771309999999998 47.372420000000005 11.651309999999999 46.95145 11.380959999999998 46.89251 C 11.215159999999997 46.85637 10.999909999999998 46.92666 10.837649999999998 46.95461 C 9.127389999999998 47.2492 7.475629999999999 48.023630000000004 6.354049999999998 49.379560000000005 C 4.967879999999998 51.05543000000001 4.557259999999998 53.29921 4.586459999999998 55.42071000000001 C 4.607409999999998 56.94435000000001 4.873359999999998 58.44041000000001 5.181219999999998 59.91875 C 5.419719999999998 61.06401 5.504069999999998 62.210570000000004 5.319989999999998 63.36345 C 5.022549999999998 65.22612 3.973359999999998 66.77833 2.917539999999998 68.30204 C 2.364119999999998 69.10078 1.821369999999998 69.90893 1.370159999999998 70.77093 C 0.854989999999998 71.75523000000001 0.48198999999999803 72.80299000000001 0.26072999999999813 73.89191000000001 C -0.26833000000000184 76.49487 -0.0012600000000018707 79.30371000000001 1.1450499999999981 81.70864 C 2.1559399999999984 83.82958 3.8648399999999983 85.50445 5.915989999999999 86.62306000000001 C 7.988459999999999 87.75326000000001 10.343869999999999 88.28566000000001 12.693269999999998 88.35731000000001 C 12.584929999999998 90.60816000000001 12.326969999999998 92.84475000000002 11.751799999999998 95.01583000000001 C 11.497309999999997 95.97614000000002 11.180659999999998 96.99689000000001 10.629039999999998 97.84272000000001 C 10.418499999999998 97.41698000000001 10.028829999999997 97.13020000000002 9.581649999999998 97.13020000000002 C 8.911399999999999 97.13020000000002 8.368089999999999 97.77262000000002 8.368089999999999 98.56509000000001 C 8.368089999999999 99.35762000000001 8.911399999999999 100.00003000000001 9.581649999999998 100.00003000000001 C 9.595529999999998 100.00003000000001 9.608979999999997 99.99812000000001 9.622739999999999 99.99756000000001 C 10.275939999999999 100.04094 11.020129999999998 99.06873 11.34335 98.46797000000001 C 12.01372 97.22187000000001 12.362659999999998 95.79820000000001 12.631839999999999 94.41922000000001 C 13.020639999999998 92.42744 13.200999999999999 90.39545000000001 13.288579999999998 88.36629 C 15.687189999999998 88.35793000000001 18.101229999999997 87.8554 20.290039999999998 86.87649 C 22.508909999999997 85.88413 24.525969999999997 84.37648 25.95255 82.39425 C 27.43491 80.33443 28.20123 77.86256 28.23191 75.33032 C 28.26412 72.6764 27.33523 70.00501 25.63296 67.9649 z M 11.24615 47.09577 C 11.24609 47.097570000000005 11.24268 47.10568 11.23884 47.11399 C 11.24311 47.08969 11.24708 47.07135 11.24615 47.09577 z M 11.23846 47.1148 C 11.23803 47.11672 11.23499 47.12205 11.22737 47.1329 C 11.22718 47.13309 11.22706 47.133269999999996 11.22694 47.13346 C 11.22359 47.12874 11.2397 47.10959 11.23846 47.1148 z M 10.52502 75.67181 C 10.38532 75.41645 10.29278 75.20975 10.187669999999999 74.92339999999999 C 10.121789999999999 74.74402999999998 10.023179999999998 74.39254999999999 9.990079999999999 74.22339999999998 C 9.8769 73.64426999999998 9.857569999999999 73.07435999999998 9.917069999999999 72.47650999999999 C 10.034709999999999 71.29344999999999 10.422509999999999 70.13349999999998 11.05669 69.12602 C 11.493459999999999 68.43216 12.03262 67.81689 12.64566 67.29209999999999 C 12.64808 68.24627999999998 12.64913 69.20038999999998 12.65254 70.15455999999999 C 12.66184 72.74331999999998 12.67764 75.33214 12.69896 77.92090999999999 C 11.79733 77.3698 11.03189 76.59803 10.52502 75.67181 z M 17.34469 65.35953 C 17.59224 65.34193 17.84046 65.33666000000001 18.08894 65.34013 L 18.08894 78.37263 C 17.84908 78.48376 17.600360000000002 78.57678 17.34469 78.64992 L 17.34469 65.35953 z M 16.73791 65.42665 L 16.73791 78.78434999999999 C 16.666629999999998 78.79543999999999 16.59511 78.80518 16.52321 78.81311 C 16.34688 78.83263 16.170489999999997 78.81876 15.993839999999999 78.82043 L 15.993839999999999 65.56963 C 16.23848 65.50983 16.48695 65.46316 16.73791 65.42665 z M 14.64281 66.03182 C 14.885580000000001 65.92415 15.134 65.82876999999999 15.38706 65.74534 L 15.38706 78.8187 C 15.13679 78.79595 14.88831 78.75851 14.64281 78.70447 L 14.64281 66.03182 z M 17.24484 79.92385 C 18.46447 79.69018 19.5961 79.00692000000001 20.37902 78.04382 C 21.18612 77.05103 21.58942 75.82433 21.6263 74.5535 C 21.63343 74.30924 21.533450000000002 73.92354 21.320800000000002 73.77584 C 21.095940000000002 73.61972 21.036250000000003 73.91121 21.031360000000003 74.0788 C 20.983330000000002 75.73285 20.039690000000004 77.18708 18.69572 78.04097 L 18.69572 65.36771 C 20.560190000000002 65.51832 22.394660000000002 66.23257 23.873980000000003 67.34907 C 24.796050000000005 68.04498 25.60873 68.90154 26.225920000000002 69.88019 C 26.54623 70.38812 26.79663 70.87366 27.010700000000003 71.41084 C 27.206740000000003 71.90289999999999 27.382580000000004 72.49498 27.474800000000002 72.98679 C 27.545270000000002 73.36251 27.58426 73.74369 27.6093 74.12640999999999 C 27.62318 74.52189999999999 27.619960000000003 76.18853999999999 26.73551 78.30779999999999 C 25.72004 80.74111999999998 22.81735 84.439 18.84167 85.66520999999999 C 14.86599 86.89141999999998 13.348300000000002 85.60619999999999 13.348300000000002 85.60619999999999 L 13.338450000000002 85.63427999999999 C 13.345140000000002 83.87033999999998 13.349730000000001 81.02139999999999 13.322950000000002 79.33895999999999 C 13.382640000000002 79.36826999999998 13.440220000000002 79.40056999999999 13.500960000000003 79.42826999999998 C 14.65069 79.95187 15.99763 80.16284 17.24484 79.92385 z M 14.03597 66.33068 L 14.03597 78.53731 C 13.786810000000001 78.45531000000001 13.54311 78.35781 13.30573 78.24557 C 13.289 77.17184 13.27387 76.09848 13.26774 75.02616 C 13.252 72.29349 13.24363 69.56081 13.23774 66.82813 C 13.4939 66.64684 13.76072 66.48129 14.03597 66.33068 z" stroke-linecap="round" />
</g>
		<g transform="matrix(1 0 0 1 -6.338385266342291 -11.972576556507619)" id="_x32__00000038406390724872887810000004942117537400809659_"  >
<linearGradient id="SVGID_4_296814" gradientUnits="userSpaceOnUse" gradientTransform="matrix(1 0 0 1 5.227879024283508 34.27287593157714)"  x1="0" y1="0" x2="0" y2="8">
<stop offset="0%" style="stop-color:rgb(91,36,122);stop-opacity: 1"/>
<stop offset="100%" style="stop-color:rgb(27,206,223);stop-opacity: 1"/>
</linearGradient>
<path style="stroke: none; stroke-width: 1; stroke-dasharray: none; stroke-linecap: butt; stroke-dashoffset: 0; stroke-linejoin: miter; stroke-miterlimit: 4; fill: url(#SVGID_4_296814); fill-rule: nonzero; opacity: 1;"  paint-order="stroke"  transform=" translate(-7.77798301802417, -38.02741248322643)" d="M 9.82414 34.28567 C 9.89052 34.25354 9.92409 34.284960000000005 9.95073 34.346090000000004 C 9.99144 34.439490000000006 10.03162 34.53313000000001 10.07206 34.626650000000005 C 10.148710000000001 34.80388000000001 10.22549 34.98134 10.28885 35.16387 C 10.34573 35.32775 10.33849 35.50748 10.28185 35.67215 C 10.14875 36.05916 10.01565 36.44617 9.88255 36.83318 C 9.43609 38.13134 8.99155 39.43105 8.54816 40.72902 C 8.40298 41.154019999999996 8.16784 41.48507 7.74311 41.65712 C 7.35407 41.81472 6.9117 41.81592 6.511299999999999 41.70095 C 5.621479999999999 41.44545 5.065809999999999 40.66128 5.270199999999999 39.94948 C 5.474599999999999 39.23763 6.361649999999999 38.86773 7.251459999999999 39.12323 C 7.623319999999999 39.23 7.931359999999999 39.43195 8.15541 39.6795 C 8.15541 39.6795 9.62321 34.567679999999996 9.62327 34.56747 C 9.65153 34.46901 9.72823 34.3321 9.82414 34.28567 z" stroke-linecap="round" />
</g>
		<g transform="matrix(1 0 0 1 8.715224370889304 8.179754147378933)" id="_x33__00000075863737275587906870000005509979432758120095_"  >
<linearGradient id="SVGID_5_296815" gradientUnits="userSpaceOnUse" gradientTransform="matrix(1 0 0 1 19.49547093210058 53.30331358947696)"  x1="0" y1="0" x2="0" y2="10">
<stop offset="0%" style="stop-color:rgb(23,234,217);stop-opacity: 1"/>
<stop offset="100%" style="stop-color:rgb(96,120,234);stop-opacity: 1"/>
</linearGradient>
<path style="stroke: none; stroke-width: 1; stroke-dasharray: none; stroke-linecap: butt; stroke-dashoffset: 0; stroke-linejoin: miter; stroke-miterlimit: 4; fill: url(#SVGID_5_296815); fill-rule: nonzero; opacity: 1;"  paint-order="stroke"  transform=" translate(-22.831592655255765, -58.179743187112976)" d="M 20.68542 60.17628 C 20.993000000000002 60.19141 21.31121 60.11586 21.564600000000002 59.936769999999996 C 21.841250000000002 59.741209999999995 21.954610000000002 59.46326 21.987350000000003 59.132839999999995 C 22.076970000000003 58.22839 22.16878 56.55076999999999 22.260410000000004 55.48441999999999 L 25.375180000000004 58.01057999999999 C 25.318050000000003 59.44060999999999 25.242880000000003 61.32179999999999 25.242880000000003 61.32179999999999 C 25.039820000000002 61.18145999999999 24.784010000000002 61.08809999999999 24.498350000000002 61.07401999999999 C 23.814790000000002 61.04035999999999 23.238770000000002 61.45633999999999 23.211840000000002 62.00320999999999 C 23.184910000000002 62.55001999999999 23.717240000000004 63.02061999999999 24.400800000000004 63.05427999999999 C 24.708410000000004 63.06943999999999 25.026610000000005 62.99388999999999 25.280010000000004 62.81476999999999 C 25.556660000000004 62.61923999999999 25.670020000000005 62.34125999999999 25.702760000000005 62.01086999999999 C 25.788850000000004 61.14207999999999 25.976370000000006 58.49817999999999 25.976370000000006 58.49817999999999 L 26.166250000000005 56.61059999999999 C 26.176570000000005 56.50789999999999 26.131820000000005 56.40738999999999 26.048560000000005 56.34636999999999 C 25.848050000000004 56.19939999999999 25.647550000000006 56.05241999999999 25.447050000000004 55.90545999999999 C 24.998060000000006 55.57634999999999 24.549070000000004 55.24722999999999 24.100080000000005 54.91811999999999 C 23.630660000000006 54.574029999999986 23.161250000000006 54.22994999999999 22.691830000000007 53.88585999999999 C 22.533260000000006 53.769629999999985 22.374690000000008 53.65339999999998 22.216100000000008 53.53713999999999 C 22.12787000000001 53.472459999999984 21.88301000000001 53.19565999999999 21.778830000000006 53.348919999999985 C 21.740240000000007 53.405689999999986 21.735220000000005 53.483429999999984 21.723070000000007 53.548949999999984 C 21.723040000000008 53.549109999999985 21.527490000000007 58.44376999999999 21.527490000000007 58.44376999999999 C 21.324430000000007 58.303429999999985 21.06865000000001 58.21009999999999 20.782960000000006 58.19601999999998 C 20.099400000000006 58.162359999999985 19.523410000000005 58.57833999999998 19.496450000000006 59.125179999999986 C 19.46951 59.67201 20.00183 60.14259 20.68542 60.17628 z" stroke-linecap="round" />
</g>
		<g transform="matrix(1 0 0 1 -7.4346389597452465 17.736290960265944)" id="_x34__00000178184895210273650380000011714198490997551512_"  >
<linearGradient id="SVGID_6_296816" gradientUnits="userSpaceOnUse" gradientTransform="matrix(1 0 0 1 0.6007281159276019 48.28489999999999)"  x1="0" y1="0" x2="0" y2="39">
<stop offset="0%" style="stop-color:rgb(91,36,122);stop-opacity: 1"/>
<stop offset="100%" style="stop-color:rgb(27,206,223);stop-opacity: 1"/>
</linearGradient>
<path style="stroke: none; stroke-width: 1; stroke-dasharray: none; stroke-linecap: butt; stroke-dashoffset: 0; stroke-linejoin: miter; stroke-miterlimit: 4; fill: url(#SVGID_6_296816); fill-rule: nonzero; opacity: 1;"  paint-order="stroke"  transform=" translate(-6.681729324621214, -67.73628)" d="M 12.76068 85.61363 C 12.76068 86.1417 12.76068 86.66976 12.74041 87.18766 C 10.993770000000001 87.1775 9.24718 86.88297 7.612220000000001 86.29404 C 5.550840000000001 85.5426 3.6417500000000005 84.30368999999999 2.331810000000001 82.52660999999999 C 2.017020000000001 82.10013 1.742820000000001 81.65332 1.5092800000000008 81.16591 C 1.2960100000000008 80.7597 1.0929000000000009 80.2012 0.9710500000000009 79.76456 C 0.7984400000000008 79.18573 0.7171800000000008 78.70842 0.6460900000000008 78.07884 C 0.5953300000000008 77.50001 0.5851600000000008 76.86026 0.6258200000000008 76.251 C 0.6258200000000008 76.22051 0.6359200000000008 76.20023 0.6359200000000008 76.16974 C 0.7781000000000008 74.05760000000001 1.5295400000000008 72.14851 2.687190000000001 70.38153 C 3.672230000000001 68.87865 4.839990000000001 67.44687 5.4695800000000006 65.74087 C 5.835140000000001 64.75583 5.99765 63.72003 6.017970000000001 62.684290000000004 C 6.028070000000001 61.2931 5.693010000000001 59.98310000000001 5.459410000000001 58.63257 C 5.073530000000001 56.408680000000004 4.961840000000001 53.98169 5.916380000000001 51.87965 C 6.617060000000001 50.33611 7.906730000000001 49.18862 9.4807 48.57936 C 9.78533 48.45751 10.10012 48.36609 10.41492 48.2849 C 10.3134 48.45752 10.21188 48.63013 10.12045 48.8129 C 9.21666 50.600139999999996 9.23699 53.31144 10.94298 54.6417 C 11.46088 55.04792 12.04987 55.22053 12.6388 55.21036 C 12.6388 55.779090000000004 12.628639999999999 56.347750000000005 12.628639999999999 56.91641 C 12.628639999999999 59.36367 12.6388 61.81093 12.6388 64.25825999999999 L 12.6388 65.84239 C 12.45602 65.97440999999999 12.28341 66.11658999999999 12.1108 66.26886999999999 C 11.91786 66.44154999999999 11.72492 66.63441999999999 11.55224 66.82736 C 11.38979 67.00004 11.22734 67.18281 11.08516 67.37576 C 11.05467 67.40619 11.0344 67.43668 11.02423 67.46711 C 10.86172 67.67022 10.7196 67.87332 10.59769 68.08659 C 10.45557 68.30996 10.323550000000001 68.54351 10.21187 68.7771 C 10.08996 69.01064000000001 9.97827 69.25434 9.886909999999999 69.49805 C 9.886909999999999 69.50821 9.876749999999998 69.52854 9.866579999999999 69.53871000000001 C 9.592379999999999 70.24956 9.409609999999999 71.001 9.328349999999999 71.7626 C 9.287749999999999 72.21951 9.277589999999998 72.68665 9.308079999999999 73.14363 C 9.48069 75.5097 10.709439999999999 77.74369 12.709889999999998 78.99276 C 12.720049999999999 79.76453000000001 12.720049999999999 80.53624 12.730219999999997 81.30801000000001 C 12.74041 82.72972 12.77085 84.17168 12.76068 85.61363 z" stroke-linecap="round" />
</g>
		<g transform="matrix(1 0 0 1 0.0005345887799457216 25.724590960265957)" id="_x35__00000024701664865921446010000017647589321871649969_"  >
<path style="stroke: none; stroke-width: 1; stroke-dasharray: none; stroke-linecap: butt; stroke-dashoffset: 0; stroke-linejoin: miter; stroke-miterlimit: 4; fill: rgb(12,224,244); fill-rule: nonzero; opacity: 1;"  paint-order="stroke"  transform=" translate(-14.116902873146406, -75.72458)" d="M 12.11207 64.68971 C 12.281519999999999 64.53904 12.45928 64.39766 12.64063 64.26112 C 12.64156 64.78758 12.64106 65.31403 12.64218 65.84048 C 12.46027 65.97752 12.28202 66.11927 12.11207 66.27037 C 10.53357 67.67402 9.539489999999999 69.69722 9.337869999999999 71.79864 C 9.329749999999999 71.71912 9.313139999999999 71.64109 9.307439999999998 71.56119000000001 C 9.12403 69.00188 10.19832 66.39155 12.11207 64.68971 z M 12.74041 85.61363 C 10.993770000000001 85.59336 9.24718 85.29883 7.612220000000001 84.70991 C 5.550840000000001 83.96857999999999 3.6417500000000005 82.71955999999999 2.331810000000001 80.94247999999999 C 2.017020000000001 80.51599999999999 1.742820000000001 80.06918999999999 1.5092800000000008 79.59188999999999 C 1.2960100000000008 79.17557 1.0929000000000009 78.61707 0.9710500000000009 78.19053 C 0.79845 77.6016 0.71719 77.1243 0.6461 76.49471 C 0.6359400000000001 76.39319 0.6359400000000001 76.28144 0.6359400000000001 76.16975 C 0.6359400000000001 76.20024 0.6258400000000001 76.22052 0.6258400000000001 76.25101 C 0.58518 76.86026 0.59535 77.50001999999999 0.6461100000000001 78.07884999999999 C 0.7172000000000001 78.70843999999998 0.7984600000000001 79.18574999999998 0.9710700000000001 79.76456999999999 C 1.0929200000000001 80.20121999999999 1.29603 80.75971 1.5093 81.16591999999999 C 1.7428400000000002 81.65332999999998 2.01704 82.10013999999998 2.33183 82.52661999999998 C 3.64177 84.30369999999998 5.55086 85.54259999999998 7.61224 86.29404999999998 C 9.2472 86.88297999999999 10.993780000000001 87.17749999999998 12.74043 87.18766999999998 C 12.7607 86.66976999999999 12.7607 86.14170999999999 12.7607 85.61363999999999 C 12.76068 85.61363 12.75058 85.61363 12.74041 85.61363 z M 26.37746 78.31672 C 25.31352 80.38088 23.59235 82.08551 21.60931 83.27422 C 19.48143 84.54976 17.04861 85.28991 14.58511 85.53139 C 14.17431 85.57173 13.76153 85.59572 13.34831 85.6062 C 13.34286 86.06126 13.34812 86.51693 13.33691 86.97167 C 13.33511 87.04375 13.33232 87.11596 13.33034 87.18804 C 13.74957 87.17788 14.16837 87.15296000000001 14.58512 87.11212 C 17.04862 86.87058 19.48144 86.13048 21.60932 84.85495 C 23.59235 83.66618 25.31353 81.96162 26.377470000000002 79.89745 C 27.299540000000004 78.10859 27.754780000000004 76.03817000000001 27.60497 74.0348 C 27.48689 75.52206 27.05812 76.99625 26.37746 78.31672 z" stroke-linecap="round" />
</g>
</g>
</g>
</svg>