<?xml version="1.0" standalone="no"?>
<!DOCTYPE svg PUBLIC "-//W3C//DTD SVG 20010904//EN"
 "http://www.w3.org/TR/2001/REC-SVG-20010904/DTD/svg10.dtd">
<svg version="1.0" xmlns="http://www.w3.org/2000/svg"
 width="1250.000000pt" height="1250.000000pt" viewBox="0 0 1250.000000 1250.000000"
 preserveAspectRatio="xMidYMid meet">
<metadata>
Created by potrace 1.14, written by Peter Selinger 2001-2017
</metadata>
<g transform="translate(0.000000,1250.000000) scale(0.100000,-0.100000)"
fill="#000000" stroke="none">
<path d="M6911 11533 c1 -5 1 -1171 0 -2592 -1 -2065 -4 -2581 -13 -2573 -37
29 -251 127 -355 161 -780 260 -1622 -29 -2077 -714 -150 -225 -241 -466 -282
-745 -24 -167 -15 -449 20 -616 138 -653 623 -1176 1266 -1363 280 -82 602
-92 885 -30 840 186 1444 953 1410 1792 -10 243 -16 2987 -7 2987 5 0 49 -25
98 -56 751 -470 1289 -1220 1488 -2074 289 -1240 -152 -2522 -1149 -3342 -474
-390 -1060 -639 -1702 -725 -161 -21 -598 -24 -753 -5 -824 101 -1514 448
-2075 1042 -340 361 -608 821 -753 1296 -253 825 -179 1703 210 2478 310 618
853 1163 1466 1470 453 227 870 335 1402 362 99 5 140 11 153 22 15 14 17 40
17 268 l0 254 -26 17 c-24 16 -42 16 -233 5 -221 -13 -361 -30 -536 -62 -1158
-217 -2177 -974 -2725 -2024 -446 -853 -563 -1837 -330 -2766 133 -532 367
-1010 710 -1450 530 -680 1283 -1173 2110 -1380 356 -90 567 -115 965 -114
323 0 451 10 700 54 860 155 1659 608 2234 1265 478 547 791 1194 911 1885 53
307 73 695 51 980 -68 867 -400 1654 -968 2300 -311 353 -739 685 -1160 898
l-113 57 0 413 c0 226 3 412 8 412 4 0 61 -13 127 -29 1011 -248 1656 -924
1990 -2086 69 -242 159 -673 181 -863 3 -34 10 -65 14 -67 4 -3 24 50 43 118
218 742 251 1341 103 1878 -173 630 -577 1150 -1406 1810 -107 86 -436 336
-730 556 -500 374 -871 663 -1069 831 -79 67 -103 83 -100 65z"/>
</g>
</svg>
